<svg width="40" height="40" viewBox="0 0 40 40" fill="none" xmlns="http://www.w3.org/2000/svg">
<path d="M4 4H9.4072L13.2632 28.4211" stroke="#A25341" stroke-width="2" stroke-miterlimit="10"/>
<path d="M14.1051 36.0002C16.4305 36.0002 18.3156 34.115 18.3156 31.7896C18.3156 29.4642 16.4305 27.5791 14.1051 27.5791C11.7796 27.5791 9.89453 29.4642 9.89453 31.7896C9.89453 34.115 11.7796 36.0002 14.1051 36.0002Z" stroke="#A25341" stroke-width="2" stroke-miterlimit="10"/>
<path d="M31.7894 36.0002C34.1148 36.0002 35.9999 34.115 35.9999 31.7896C35.9999 29.4642 34.1148 27.5791 31.7894 27.5791C29.464 27.5791 27.5789 29.4642 27.5789 31.7896C27.5789 34.115 29.464 36.0002 31.7894 36.0002Z" stroke="#A25341" stroke-width="2" stroke-miterlimit="10"/>
<path d="M17.4661 31.5104H27.5943" stroke="#A25341" stroke-width="2" stroke-miterlimit="10"/>
<path d="M13.1955 24.2107H31.8811L35.9998 11.5791H9.89453" stroke="#A25341" stroke-width="2" stroke-miterlimit="10"/>
</svg>
